# Blender v2.78 (sub 0) OBJ File: ''
# www.blender.org
mtllib SciFiWall.mtl
o Plane.011_Plane.030
v -0.201242 3.618536 6.753826
v -0.201242 3.618538 -6.753831
v -0.028310 4.283201 -6.753826
v -0.028310 4.283199 6.753826
v -0.028310 4.283201 -6.753826
v -0.028310 13.400523 -6.753824
v 0.481502 2.176614 6.753826
v 0.481502 -0.054407 6.753831
v 0.481502 -0.054405 -6.753821
v -0.201242 3.149417 6.753826
v -0.201242 3.149420 -6.753831
v -0.201242 3.618538 -6.753831
v 0.481502 2.176614 6.753826
v 0.481502 2.176616 -6.753831
v -0.201242 3.149420 -6.753831
v -0.028310 4.283199 6.753826
v -0.028310 13.400521 6.753833
v 0.481502 2.176616 -6.753831
v -0.201242 3.618536 6.753826
v -0.201242 3.149417 6.753826
vt 0.0001 0.2840
vt 0.9864 0.2840
vt 0.9864 0.3342
vt 0.0001 0.3342
vt 0.9864 0.3342
vt 0.9864 0.9999
vt 0.0001 0.1630
vt 0.0001 0.0001
vt 0.9864 0.0001
vt 0.0001 0.2498
vt 0.9864 0.2498
vt 0.9864 0.2840
vt 0.0001 0.1630
vt 0.9864 0.1630
vt 0.9864 0.2498
vt 0.0001 0.3342
vt 0.0001 0.9999
vt 0.9864 0.1630
vt 0.0001 0.2840
vt 0.0001 0.2498
vn 0.9678 -0.2518 0.0000
vn 1.0000 0.0000 0.0000
vn 0.8185 0.5744 0.0000
usemtl Material.019
s 1
f 1/1/1 2/2/1 3/3/1
f 4/4/2 5/5/2 6/6/2
f 7/7/2 8/8/2 9/9/2
f 10/10/2 11/11/2 12/12/2
f 13/13/3 14/14/3 15/15/3
f 16/16/1 1/1/1 3/3/1
f 17/17/2 4/4/2 6/6/2
f 18/18/2 7/7/2 9/9/2
f 19/19/2 10/10/2 12/12/2
f 20/20/3 13/13/3 15/15/3
