# Blender v2.78 (sub 0) OBJ File: ''
# www.blender.org
mtllib wallscifi.mtl
o Plane.011_Plane.030
v -1.530304 -5.814433 88.662575
v -1.530304 -5.814351 -88.662621
v 0.739907 2.911186 -88.662560
v 0.739907 2.911105 88.662575
v 0.739907 2.911186 -88.662560
v 0.739907 122.601151 -88.662498
v 7.432592 -24.743626 88.662560
v 7.432592 -54.031929 88.662621
v 7.432592 -54.031837 -88.662506
v -1.530304 -11.972911 88.662575
v -1.530304 -11.972810 -88.662621
v -1.530304 -5.814351 -88.662621
v 7.432592 -24.743626 88.662560
v 7.432592 -24.743542 -88.662636
v -1.530304 -11.972810 -88.662621
v 0.739907 2.911105 88.662575
v 0.739907 122.601067 88.662697
v 7.432592 -24.743542 -88.662636
v -1.530304 -5.814433 88.662575
v -1.530304 -11.972911 88.662575
vt 0.0001 0.2840
vt 0.9864 0.2840
vt 0.9864 0.3342
vt 0.0001 0.3342
vt 0.9864 0.3342
vt 0.9864 0.9999
vt 0.0001 0.1630
vt 0.0001 0.0001
vt 0.9864 0.0001
vt 0.0001 0.2498
vt 0.9864 0.2498
vt 0.9864 0.2840
vt 0.0001 0.1630
vt 0.9864 0.1630
vt 0.9864 0.2498
vt 0.0001 0.3342
vt 0.0001 0.9999
vt 0.9864 0.1630
vt 0.0001 0.2840
vt 0.0001 0.2498
vn 0.9678 -0.2518 -0.0000
vn 1.0000 0.0000 0.0000
vn 0.8185 0.5745 0.0000
usemtl Material.019
s 1
f 1/1/1 2/2/1 3/3/1
f 4/4/2 5/5/2 6/6/2
f 7/7/2 8/8/2 9/9/2
f 10/10/2 11/11/2 12/12/2
f 13/13/3 14/14/3 15/15/3
f 16/16/1 1/1/1 3/3/1
f 17/17/2 4/4/2 6/6/2
f 18/18/2 7/7/2 9/9/2
f 19/19/2 10/10/2 12/12/2
f 20/20/3 13/13/3 15/15/3
